<?xml version="1.0" encoding="utf-8"?>
<!-- Generator: Adobe Illustrator 27.3.1, SVG Export Plug-In . SVG Version: 6.00 Build 0)  -->
<svg version="1.1" id="Layer_1" xmlns="http://www.w3.org/2000/svg" xmlns:xlink="http://www.w3.org/1999/xlink" x="0px" y="0px"
	 viewBox="0 0 100 100" style="enable-background:new 0 0 100 100;" xml:space="preserve">
<style type="text/css">
	.st0{fill:#FFFFFF;}
	.st1{fill:url(#SVGID_1_);}
	.st2{fill:url(#SVGID_00000155863095933699790220000007260420057357093272_);}
	.st3{fill:url(#SVGID_00000026843208246495140520000004077722897141233821_);}
	.st4{fill:url(#SVGID_00000176014989758596160320000006255633355464571535_);}
</style>
<g>
	<path class="st0" d="M67,34.54l3.95,6.85l-6.86,3.96c-1.89,1.09-4.31,0.44-5.4-1.45L43.87,18.23c-1.64-2.83-4.27-4.74-7.2-5.52
		c-2.93-0.79-6.16-0.45-9,1.18c-5.67,3.27-7.61,10.53-4.34,16.2l2.73,4.73l-6.85,3.95l-2.73-4.73c-5.46-9.45-2.22-21.54,7.23-26.99
		c4.72-2.73,10.11-3.28,14.99-1.97c4.89,1.31,9.27,4.48,12,9.2l12.84,22.25L67,34.54z"/>
	
		<linearGradient id="SVGID_1_" gradientUnits="userSpaceOnUse" x1="32.7997" y1="27.6873" x2="32.8393" y2="19.8559" gradientTransform="matrix(0.866 -0.5 0.5 0.866 -18.3922 31.3592)">
		<stop  offset="0.1078" style="stop-color:#000000"/>
		<stop  offset="0.3603" style="stop-color:#0F0F0F"/>
		<stop  offset="0.6788" style="stop-color:#F5F5F5"/>
		<stop  offset="1" style="stop-color:#FFFFFF"/>
	</linearGradient>
	<path class="st1" d="M26.49,35.57l-6.85,3.95l-1.99-3.45c-0.57-0.99-0.23-2.26,0.76-2.84l3.25-1.87c0.99-0.57,2.26-0.23,2.84,0.76
		L26.49,35.57z"/>
</g>
<g>
	<path class="st0" d="M34.21,31.56l6.85-3.95l3.96,6.86c1.09,1.89,0.44,4.31-1.45,5.4L17.9,54.69c-2.83,1.64-4.74,4.27-5.52,7.2
		c-0.79,2.93-0.45,6.16,1.18,9c3.27,5.67,10.53,7.61,16.2,4.34l4.73-2.73l3.95,6.85l-4.73,2.73c-9.45,5.46-21.54,2.22-26.99-7.23
		c-2.73-4.72-3.28-10.11-1.97-14.99c1.31-4.89,4.48-9.27,9.2-12L36.19,35L34.21,31.56z"/>
	
		<linearGradient id="SVGID_00000091697295803073661980000009263605391755802758_" gradientUnits="userSpaceOnUse" x1="-76.3427" y1="-166.6971" x2="-76.3031" y2="-174.5285" gradientTransform="matrix(-0.5 -0.866 0.866 -0.5 144.7974 -74.7569)">
		<stop  offset="0.1078" style="stop-color:#000000"/>
		<stop  offset="0.3603" style="stop-color:#0F0F0F"/>
		<stop  offset="0.6788" style="stop-color:#F5F5F5"/>
		<stop  offset="1" style="stop-color:#FFFFFF"/>
	</linearGradient>
	<path style="fill:url(#SVGID_00000091697295803073661980000009263605391755802758_);" d="M35.23,72.07l3.95,6.85l-3.45,1.99
		c-0.99,0.57-2.26,0.23-2.84-0.76l-1.87-3.25c-0.57-0.99-0.23-2.26,0.76-2.84L35.23,72.07z"/>
</g>
<g>
	<path class="st0" d="M30.46,66.14l-3.95-6.85l6.86-3.96c1.89-1.09,4.31-0.44,5.4,1.45l14.82,25.67c1.64,2.83,4.27,4.74,7.2,5.52
		c2.93,0.79,6.16,0.45,9-1.18c5.67-3.27,7.61-10.53,4.34-16.2l-2.73-4.73l6.85-3.95l2.73,4.73c5.46,9.45,2.22,21.54-7.23,26.99
		c-4.72,2.73-10.11,3.28-14.99,1.97c-4.89-1.31-9.27-4.48-12-9.2L33.9,64.16L30.46,66.14z"/>
	
		<linearGradient id="SVGID_00000049943351445827542360000008859698455428343735_" gradientUnits="userSpaceOnUse" x1="168.731" y1="-244.3128" x2="168.7705" y2="-252.1442" gradientTransform="matrix(-0.866 0.5 -0.5 -0.866 97.5698 -234.2001)">
		<stop  offset="0.1078" style="stop-color:#000000"/>
		<stop  offset="0.3603" style="stop-color:#0F0F0F"/>
		<stop  offset="0.6788" style="stop-color:#F5F5F5"/>
		<stop  offset="1" style="stop-color:#FFFFFF"/>
	</linearGradient>
	<path style="fill:url(#SVGID_00000049943351445827542360000008859698455428343735_);" d="M70.96,65.12l6.85-3.95l1.99,3.45
		c0.57,0.99,0.23,2.26-0.76,2.84l-3.25,1.87c-0.99,0.57-2.26,0.23-2.84-0.76L70.96,65.12z"/>
</g>
<g>
	<path class="st0" d="M64.7,68.89l-6.85,3.95l-3.96-6.86c-1.09-1.89-0.44-4.31,1.45-5.4l25.67-14.82c2.83-1.64,4.74-4.27,5.52-7.2
		c0.79-2.93,0.45-6.16-1.18-9c-3.27-5.67-10.53-7.61-16.2-4.34l-4.73,2.73l-3.95-6.85l4.73-2.73c9.45-5.46,21.54-2.22,26.99,7.23
		c2.73,4.72,3.28,10.11,1.97,14.99c-1.31,4.89-4.48,9.27-9.2,12L62.71,65.45L64.7,68.89z"/>
	
		<linearGradient id="SVGID_00000110437523167964248620000014066061787058685091_" gradientUnits="userSpaceOnUse" x1="211.588" y1="-80.2431" x2="211.6276" y2="-88.0745" gradientTransform="matrix(0.5 0.866 -0.866 0.5 -114.9877 -117.3721)">
		<stop  offset="0.1078" style="stop-color:#000000"/>
		<stop  offset="0.3603" style="stop-color:#0F0F0F"/>
		<stop  offset="0.6788" style="stop-color:#F5F5F5"/>
		<stop  offset="1" style="stop-color:#FFFFFF"/>
	</linearGradient>
	<path style="fill:url(#SVGID_00000110437523167964248620000014066061787058685091_);" d="M63.67,28.38l-3.95-6.85l3.45-1.99
		c0.99-0.57,2.26-0.23,2.84,0.76l1.87,3.25c0.57,0.99,0.23,2.26-0.76,2.84L63.67,28.38z"/>
</g>
</svg>
